<?xml version="1.0" encoding="utf-8"?>
<svg version="1.1" id="Layer_1" xmlns="http://www.w3.org/2000/svg" xmlns:xlink="http://www.w3.org/1999/xlink" x="0px" y="0px"
	 viewBox="0 0 200 200" xml:space="preserve">
	<g id="logo">
		<g opacity="0.61">
			<path fill="#FFFFFF" d="M68.5,87.4c0,0,62.9,6.3,62.9,16.8V79c0,0,0-10.5-62.9-16.8V72V87.4z"/>
			<path fill="#FFFFFF" d="M68.5,121c0,0,62.9,6.3,62.9,16.8v-25.2c0,0,0-10.5-62.9-16.8V121z"/>
		</g>
		<path fill="#FFFFFF" d="M131.5,45.5v25.2c0,0,0,10.5-62.9,16.8V62.2C68.5,62.2,131.5,56,131.5,45.5"/>
		<path fill="#FFFFFF" d="M68.5,95.8c0,0,62.9-6.3,62.9-16.8v25.2c0,0,0,10.5-62.9,16.8V95.8z"/>
		<path fill="#FFFFFF" d="M68.5,154.5v-25.2c0,0,62.9-6.3,62.9-16.8v25.2C131.5,137.8,131.5,148.2,68.5,154.5"/>
	</g>
</svg>
